<?xml version="1.0" standalone="no"?>
<!DOCTYPE svg PUBLIC "-//W3C//DTD SVG 20010904//EN"
 "http://www.w3.org/TR/2001/REC-SVG-20010904/DTD/svg10.dtd">
<svg version="1.0" xmlns="http://www.w3.org/2000/svg"
 width="300.000000pt" height="300.000000pt" viewBox="0 0 300.000000 300.000000"
 preserveAspectRatio="xMidYMid meet">
<metadata>
Created by potrace 1.10, written by Peter Selinger 2001-2011
</metadata>
<g transform="translate(0.000000,300.000000) scale(0.100000,-0.100000)"
fill="#1f2937" stroke="none">
<path d="M1500 2944 c-19 -8 -44 -17 -55 -21 -11 -3 -72 -32 -135 -64 -558
-279 -779 -669 -618 -1089 65 -170 164 -305 397 -544 294 -302 386 -456 398
-667 8 -144 -21 -276 -103 -463 -19 -43 -33 -81 -30 -83 4 -5 36 19 166 125
154 126 333 328 406 458 120 215 136 434 48 647 -50 118 -154 269 -291 418
-153 168 -209 242 -262 348 -72 143 -105 308 -90 441 18 150 92 336 188 468
13 18 22 35 20 36 -2 2 -20 -3 -39 -10z"/>
<path d="M1563 2818 c-168 -268 -187 -510 -61 -762 52 -103 99 -169 201 -280
240 -261 351 -439 403 -643 23 -90 23 -236 0 -333 -21 -87 -100 -260 -151
-331 -19 -27 -32 -49 -29 -49 18 0 180 119 265 194 158 139 254 272 315 436
25 69 28 87 28 215 1 120 -3 150 -22 212 -69 213 -189 372 -453 599 -241 207
-313 283 -365 387 -54 105 -66 155 -73 300 l-6 138 -52 -83z"/>
<path d="M640 1518 c-12 -40 -26 -86 -31 -101 -20 -66 -31 -248 -20 -345 27
-234 84 -322 346 -533 138 -111 167 -141 222 -224 48 -72 72 -130 88 -210 l12
-60 33 70 c46 101 47 104 69 170 33 102 46 223 32 308 -30 184 -104 299 -361
562 -173 176 -265 285 -322 380 -18 30 -36 55 -39 55 -4 0 -16 -33 -29 -72z"/>
</g>
</svg>
